PathFileType	4	(X/Y/Z)	 s09c0001.trc
DataRate	CameraRate	NumFrames	NumMarkers	Units	OrigDataRate	OrigDataStartFrame	OrigNumFrames
200	200	4	49	mm	200	1751	2000
Frame#	Time	racr			lacr			c7			jug			rlel			rdr			llel			ldr			s2			lic			ric			lasi			rasi			rpsi			lpsi			rgt			lgt			rth1			rth2			rth3			rth4			rlfc			rmfc			rsh1			rsh2			rsh3			rsh4			rlmal			rmmal			rcal			rtoe			rmt5			rmt1			lth1			lth2			lth4			lth3			llfc			lmfc			llmal			lmmal			lcal			lmt1			lmt5			lsh1			lsh2			lsh3			lsh4			ltoe			
		X1	Y1	Z1	X2	Y2	Z2	X3	Y3	Z3	X4	Y4	Z4	X5	Y5	Z5	X6	Y6	Z6	X7	Y7	Z7	X8	Y8	Z8	X9	Y9	Z9	X10	Y10	Z10	X11	Y11	Z11	X12	Y12	Z12	X13	Y13	Z13	X14	Y14	Z14	X15	Y15	Z15	X16	Y16	Z16	X17	Y17	Z17	X18	Y18	Z18	X19	Y19	Z19	X20	Y20	Z20	X21	Y21	Z21	X22	Y22	Z22	X23	Y23	Z23	X24	Y24	Z24	X25	Y25	Z25	X26	Y26	Z26	X27	Y27	Z27	X28	Y28	Z28	X29	Y29	Z29	X30	Y30	Z30	X31	Y31	Z31	X32	Y32	Z32	X33	Y33	Z33	X34	Y34	Z34	X35	Y35	Z35	X36	Y36	Z36	X37	Y37	Z37	X38	Y38	Z38	X39	Y39	Z39	X40	Y40	Z40	X41	Y41	Z41	X42	Y42	Z42	X43	Y43	Z43	X44	Y44	Z44	X45	Y45	Z45	X46	Y46	Z46	X47	Y47	Z47	X48	Y48	Z48	X49	Y49	Z49	
1751	8.7550	280.664626	1352.936611	381.364737	283.022928	1335.552639	-11.426284	229.210481	1402.148166	181.674217	352.732944	1351.115597	180.931253	295.996568	1092.787876	448.185593	361.830506	879.356723	578.408881	274.254992	1051.550808	-47.267371	400.286859	897.344187	-195.361185	220.859099	941.238957	184.427919	351.208154	991.015164	47.969317	339.137563	1002.632246	337.635857	409.242755	955.298234	79.438198	399.098610	966.033092	318.856680	224.258075	978.493122	243.974095	224.955345	974.673588	133.414807	325.039242	846.878085	385.741624	329.527383	836.865644	10.477252	348.290730	716.382392	381.566938	364.019856	630.903958	368.050629	332.228420	548.399224	358.522364	394.631979	629.458501	348.258746	318.870818	450.998340	334.811266	301.577658	431.005068	236.798433	278.094402	361.123260	367.957855	302.227226	274.045637	359.606656	279.192023	189.278230	361.216582	327.907725	276.883984	329.575602	276.760692	86.739250	360.327982	286.157246	93.464572	283.788583	219.182000	32.003669	318.052253	471.933091	86.064141	354.327492	388.171568	49.240672	407.092463	400.982532	39.253237	297.140755	340.065210	710.740536	8.964671	355.130154	629.071718	25.909711	390.934614	627.009547	39.862137	326.577796	543.825430	34.568001	308.765003	449.217879	46.892278	317.531317	429.089869	139.983427	268.495492	84.999043	21.772206	291.184692	96.198908	92.412133	218.682366	26.717772	68.096148	406.277041	43.988055	87.221510	381.408547	33.824607	-18.414777	277.917470	355.170197	17.344285	295.831448	270.387154	21.226030	274.336225	198.343175	14.739766	322.963632	270.776801	50.339102	472.547839	79.197159	36.484688	
1752	8.7600	280.658451	1352.930054	381.386025	283.023837	1335.552847	-11.427198	229.184470	1402.150248	181.707074	352.717477	1351.108309	180.943174	295.995792	1092.788528	448.184550	361.841983	879.347217	578.389543	274.263311	1051.545267	-47.268448	400.273276	897.341495	-195.354014	220.872093	941.238016	184.425061	351.208695	991.027757	47.970793	339.132429	1002.635805	337.635686	409.213405	955.305669	79.434125	399.099083	966.026832	318.851092	224.269141	978.494710	243.963159	224.945954	974.680411	133.417927	325.029414	846.877320	385.745107	329.504392	836.867794	10.474033	348.290387	716.398919	381.561896	364.037781	630.853517	368.059417	332.229594	548.397458	358.521435	394.642943	629.458812	348.258079	318.894839	451.010714	334.814567	301.603100	431.031816	236.790262	278.093660	361.124649	367.958319	302.218808	274.043212	359.588371	279.190467	189.285402	361.205125	327.887506	276.893273	329.588533	276.779087	86.721679	360.317957	286.137262	93.462180	283.790426	219.157391	32.014173	318.051971	471.922613	86.078826	354.329966	388.184993	49.247486	407.106917	401.004054	39.270793	297.155817	340.161862	710.610109	8.956291	355.146599	629.068377	25.906014	390.952180	627.023463	39.853092	326.591318	543.825902	34.563503	308.758663	449.141575	46.961155	317.530304	429.092704	139.983755	268.507929	84.971926	21.785144	291.173128	96.197102	92.415654	218.696485	26.713668	68.099849	406.281316	43.982153	87.221471	381.425933	33.804533	-18.435568	277.927518	355.164815	17.343889	295.830045	270.386122	21.237058	274.322615	198.337415	14.724827	322.941394	270.747744	50.361328	472.556676	79.186620	36.457269	
1753	8.7650	280.655689	1352.917032	381.379190	283.024399	1335.552318	-11.428016	229.184476	1402.150245	181.707074	352.720043	1351.103364	180.947035	296.012954	1092.759608	448.165839	361.879575	879.334581	578.366325	274.266621	1051.540169	-47.258162	400.283371	897.341589	-195.342834	220.880955	941.225911	184.437688	351.205408	991.022321	47.967003	339.159778	1002.629046	337.644369	409.219372	955.291519	79.424402	399.098203	966.035018	318.857255	224.253180	978.510574	243.974076	224.950912	974.662627	133.417374	325.039278	846.877508	385.738972	329.520689	836.867849	10.459764	348.305968	716.382017	381.573279	364.046995	630.902425	368.027301	332.230575	548.390137	358.527757	394.641467	629.456957	348.260600	318.885752	450.990440	334.824047	301.594677	431.021672	236.819478	278.086775	361.129270	367.952781	302.221140	274.041057	359.602276	279.206712	189.272257	361.201844	327.908080	276.884402	329.576110	276.761392	86.740518	360.324599	286.125341	93.460801	283.788486	219.181600	32.023031	318.054200	471.924660	86.065423	354.326575	388.186330	49.243443	407.093877	401.008669	39.271442	297.139079	340.165705	710.607243	8.971933	355.149044	629.061479	25.934670	390.921879	627.054607	39.789848	326.576653	543.828145	34.556770	308.753872	449.136900	46.972647	317.552385	429.085194	139.998139	268.525053	84.989425	21.775169	291.188301	96.190889	92.411584	218.698384	26.705734	68.111535	406.278568	43.992819	87.224293	381.422118	33.838108	-18.436070	277.927994	355.164466	17.349029	295.830512	270.384614	21.236990	274.320630	198.339402	14.731451	322.945297	270.756673	50.350820	472.556943	79.170622	36.454350	
1754	8.7700	280.662224	1352.916105	381.384455	283.004212	1335.553330	-11.435975	229.191749	1402.141425	181.693878	352.707850	1351.106066	180.943489	296.015582	1092.756131	448.151070	361.892090	879.330402	578.345645	274.265476	1051.542276	-47.256605	400.278397	897.330919	-195.331036	220.890710	941.224176	184.416465	351.207341	991.023732	47.965707	339.135023	1002.634011	337.635789	409.230732	955.293558	79.427502	399.099861	966.032985	318.843431	224.259944	978.493410	243.969493	224.943385	974.677317	133.427612	325.040186	846.875522	385.738534	329.526747	836.853861	10.469972	348.287606	716.398753	381.568267	364.036375	630.913772	368.038846	332.224906	548.398813	358.531528	394.642940	629.458819	348.258073	318.869391	451.004480	334.801325	301.579633	431.001216	236.799256	278.097087	361.123018	367.961075	302.235877	274.043865	359.601975	279.205295	189.274610	361.204247	327.919991	276.894721	329.596028	276.772612	86.748124	360.334356	286.138871	93.460129	283.793064	219.157118	32.023969	318.047979	471.929809	86.080666	354.330272	388.170793	49.245675	407.099447	401.005296	39.269605	297.156849	340.159753	710.606052	8.977277	355.139545	629.063690	25.927427	390.940315	627.035106	39.836207	326.591639	543.808466	34.564751	308.754505	449.128818	46.968094	317.537576	429.105534	140.004578	268.519170	84.990789	21.781296	291.174656	96.193188	92.419009	218.715814	26.697725	68.095590	406.284402	43.978236	87.221103	381.457559	33.817921	-18.418996	277.904363	355.165332	17.341571	295.826543	270.364297	21.250760	274.324367	198.331299	14.796783	322.956455	270.787902	50.342626	472.563443	79.197102	36.463822	
